<svg xmlns="http://www.w3.org/2000/svg" xmlns:xlink="http://www.w3.org/1999/xlink" width="67.584" height="94.72" viewBox="0 0 67.584 94.72">
    <defs>
      <linearGradient id="linear-gradient" y1="0.5" x2="1" y2="0.532" gradientUnits="objectBoundingBox">
        <stop offset="0" stop-color="#feac5e"/>
        <stop offset="0.506" stop-color="#c779d0"/>
        <stop offset="1" stop-color="#4bc0c8"/>
      </linearGradient>
    </defs>
    <path id="Intersection_4" data-name="Intersection 4" d="M575.5-843v-39.168q0-8.447-4.224-12.992t-11.52-4.544q-7.425,0-11.713,4.544t-4.288,12.992V-843h-17.92v-94.72h17.92v32.64a23.356,23.356,0,0,1,9.216-7.232,30.514,30.514,0,0,1,12.8-2.624,28.783,28.783,0,0,1,14.336,3.521,24.248,24.248,0,0,1,9.792,10.368,35.6,35.6,0,0,1,3.52,16.448V-843Z" transform="translate(-525.832 937.72)" fill="url(#linear-gradient)"/>
  </svg>